<svg width="100%" height="100%" viewBox="0 0 23 23" fill="none" xmlns="http://www.w3.org/2000/svg">
    <path d="M22.4898 0.527683C21.8094 -0.152635 20.7105 -0.152635 20.0301 0.527683L11.5 9.04039L2.96985 0.510239C2.28953 -0.17008 1.19056 -0.17008 0.510239 0.510239C-0.17008 1.19056 -0.17008 2.28953 0.510239 2.96985L9.04039 11.5L0.510239 20.0301C-0.17008 20.7105 -0.17008 21.8094 0.510239 22.4898C1.19056 23.1701 2.28953 23.1701 2.96985 22.4898L11.5 13.9596L20.0301 22.4898C20.7105 23.1701 21.8094 23.1701 22.4898 22.4898C23.1701 21.8094 23.1701 20.7105 22.4898 20.0301L13.9596 11.5L22.4898 2.96985C23.1526 2.30698 23.1526 1.19056 22.4898 0.527683Z" fill="red"/>
</svg>
